<?xml version="1.0" encoding="utf-8" standalone="no"?>
<!DOCTYPE svg PUBLIC "-//W3C//DTD SVG 1.1//EN"
  "http://www.w3.org/Graphics/SVG/1.1/DTD/svg11.dtd">
<svg xmlns:xlink="http://www.w3.org/1999/xlink" width="864pt" height="432pt" viewBox="0 0 864 432" xmlns="http://www.w3.org/2000/svg" version="1.1">
 <metadata>
  <rdf:RDF xmlns:dc="http://purl.org/dc/elements/1.1/" xmlns:cc="http://creativecommons.org/ns#" xmlns:rdf="http://www.w3.org/1999/02/22-rdf-syntax-ns#">
   <cc:Work>
    <dc:type rdf:resource="http://purl.org/dc/dcmitype/StillImage"/>
    <dc:date>2024-01-11T18:38:38.613477</dc:date>
    <dc:format>image/svg+xml</dc:format>
    <dc:creator>
     <cc:Agent>
      <dc:title>Matplotlib v3.8.0, https://matplotlib.org/</dc:title>
     </cc:Agent>
    </dc:creator>
   </cc:Work>
  </rdf:RDF>
 </metadata>
 <defs>
  <style type="text/css">*{stroke-linejoin: round; stroke-linecap: butt}</style>
 </defs>
 <g id="figure_1">
  <g id="patch_1">
   <path d="M 0 432 
L 864 432 
L 864 0 
L 0 0 
z
" style="fill: #ffffff"/>
  </g>
  <g id="axes_1">
   <g id="patch_2">
    <path d="M 265.469845 80.705455 
Q 290.55013 80.705455 314.51238 80.705455 
" clip-path="url(#p6d2c48c7d1)" style="fill: none; stroke: #000000; stroke-linecap: round"/>
    <path d="M 310.51238 78.705455 
L 314.51238 80.705455 
L 310.51238 82.705455 
z
" clip-path="url(#p6d2c48c7d1)" style="stroke: #000000; stroke-linecap: round"/>
   </g>
   <g id="patch_3">
    <path d="M 332.956239 80.705455 
Q 358.036524 80.705455 381.998774 80.705455 
" clip-path="url(#p6d2c48c7d1)" style="fill: none; stroke: #000000; stroke-linecap: round"/>
    <path d="M 377.998774 78.705455 
L 381.998774 80.705455 
L 377.998774 82.705455 
z
" clip-path="url(#p6d2c48c7d1)" style="stroke: #000000; stroke-linecap: round"/>
   </g>
   <g id="patch_4">
    <path d="M 391.780286 89.367675 
Q 391.780286 149.434469 391.780286 208.383229 
" clip-path="url(#p6d2c48c7d1)" style="fill: none; stroke: #000000; stroke-linecap: round"/>
    <path d="M 393.780286 204.383229 
L 391.780286 208.383229 
L 389.780286 204.383229 
z
" clip-path="url(#p6d2c48c7d1)" style="stroke: #000000; stroke-linecap: round"/>
   </g>
   <g id="patch_5">
    <path d="M 391.780286 226.82222 
Q 391.780286 286.889014 391.780286 345.837775 
" clip-path="url(#p6d2c48c7d1)" style="fill: none; stroke: #000000; stroke-linecap: round"/>
    <path d="M 393.780286 341.837775 
L 391.780286 345.837775 
L 389.780286 341.837775 
z
" clip-path="url(#p6d2c48c7d1)" style="stroke: #000000; stroke-linecap: round"/>
   </g>
   <g id="patch_6">
    <path d="M 315.631546 355.614545 
Q 290.551261 355.614545 266.589011 355.614545 
" clip-path="url(#p6d2c48c7d1)" style="fill: none; stroke: #000000; stroke-linecap: round"/>
    <path d="M 270.589011 357.614545 
L 266.589011 355.614545 
L 270.589011 353.614545 
z
" clip-path="url(#p6d2c48c7d1)" style="stroke: #000000; stroke-linecap: round"/>
   </g>
   <g id="patch_7">
    <path d="M 383.11794 355.614545 
Q 358.037655 355.614545 334.075405 355.614545 
" clip-path="url(#p6d2c48c7d1)" style="fill: none; stroke: #000000; stroke-linecap: round"/>
    <path d="M 338.075405 357.614545 
L 334.075405 355.614545 
L 338.075405 353.614545 
z
" clip-path="url(#p6d2c48c7d1)" style="stroke: #000000; stroke-linecap: round"/>
   </g>
   <g id="PathCollection_1">
    <defs>
     <path id="m1d228ae564" d="M 0 8.660254 
C 2.296726 8.660254 4.499694 7.747755 6.123724 6.123724 
C 7.747755 4.499694 8.660254 2.296726 8.660254 0 
C 8.660254 -2.296726 7.747755 -4.499694 6.123724 -6.123724 
C 4.499694 -7.747755 2.296726 -8.660254 0 -8.660254 
C -2.296726 -8.660254 -4.499694 -7.747755 -6.123724 -6.123724 
C -7.747755 -4.499694 -8.660254 -2.296726 -8.660254 0 
C -8.660254 2.296726 -7.747755 4.499694 -6.123724 6.123724 
C -4.499694 7.747755 -2.296726 8.660254 0 8.660254 
z
" style="stroke: #ffffff"/>
    </defs>
    <g clip-path="url(#p6d2c48c7d1)">
     <use xlink:href="#m1d228ae564" x="121.834711" y="80.705455" style="fill: #ffffff; stroke: #ffffff"/>
     <use xlink:href="#m1d228ae564" x="189.321105" y="80.705455" style="fill: #ffffff; stroke: #ffffff"/>
     <use xlink:href="#m1d228ae564" x="256.807498" y="80.705455" style="fill: #ffffff; stroke: #ffffff"/>
     <use xlink:href="#m1d228ae564" x="324.293892" y="80.705455" style="fill: #ffffff; stroke: #ffffff"/>
     <use xlink:href="#m1d228ae564" x="391.780286" y="80.705455" style="fill: #ffffff; stroke: #ffffff"/>
     <use xlink:href="#m1d228ae564" x="121.834711" y="218.16" style="fill: #ffffff; stroke: #ffffff"/>
     <use xlink:href="#m1d228ae564" x="189.321105" y="218.16" style="fill: #ffffff; stroke: #ffffff"/>
     <use xlink:href="#m1d228ae564" x="256.807498" y="218.16" style="fill: #ffffff; stroke: #ffffff"/>
     <use xlink:href="#m1d228ae564" x="324.293892" y="218.16" style="fill: #ffffff; stroke: #ffffff"/>
     <use xlink:href="#m1d228ae564" x="391.780286" y="218.16" style="fill: #ffffff; stroke: #ffffff"/>
     <use xlink:href="#m1d228ae564" x="121.834711" y="355.614545" style="fill: #ffffff; stroke: #ffffff"/>
     <use xlink:href="#m1d228ae564" x="189.321105" y="355.614545" style="fill: #ffffff; stroke: #ffffff"/>
     <use xlink:href="#m1d228ae564" x="256.807498" y="355.614545" style="fill: #ffffff; stroke: #ffffff"/>
     <use xlink:href="#m1d228ae564" x="324.293892" y="355.614545" style="fill: #ffffff; stroke: #ffffff"/>
     <use xlink:href="#m1d228ae564" x="391.780286" y="355.614545" style="fill: #ffffff; stroke: #ffffff"/>
    </g>
   </g>
   <g id="text_1">
    <g clip-path="url(#p6d2c48c7d1)">
     <!-- (0, 0) -->
     <g transform="translate(111.080961 82.912955) scale(0.08 -0.08)">
      <defs>
       <path id="DejaVuSans-28" d="M 1984 4856 
Q 1566 4138 1362 3434 
Q 1159 2731 1159 2009 
Q 1159 1288 1364 580 
Q 1569 -128 1984 -844 
L 1484 -844 
Q 1016 -109 783 600 
Q 550 1309 550 2009 
Q 550 2706 781 3412 
Q 1013 4119 1484 4856 
L 1984 4856 
z
" transform="scale(0.015625)"/>
       <path id="DejaVuSans-30" d="M 2034 4250 
Q 1547 4250 1301 3770 
Q 1056 3291 1056 2328 
Q 1056 1369 1301 889 
Q 1547 409 2034 409 
Q 2525 409 2770 889 
Q 3016 1369 3016 2328 
Q 3016 3291 2770 3770 
Q 2525 4250 2034 4250 
z
M 2034 4750 
Q 2819 4750 3233 4129 
Q 3647 3509 3647 2328 
Q 3647 1150 3233 529 
Q 2819 -91 2034 -91 
Q 1250 -91 836 529 
Q 422 1150 422 2328 
Q 422 3509 836 4129 
Q 1250 4750 2034 4750 
z
" transform="scale(0.015625)"/>
       <path id="DejaVuSans-2c" d="M 750 794 
L 1409 794 
L 1409 256 
L 897 -744 
L 494 -744 
L 750 256 
L 750 794 
z
" transform="scale(0.015625)"/>
       <path id="DejaVuSans-20" transform="scale(0.015625)"/>
       <path id="DejaVuSans-29" d="M 513 4856 
L 1013 4856 
Q 1481 4119 1714 3412 
Q 1947 2706 1947 2009 
Q 1947 1309 1714 600 
Q 1481 -109 1013 -844 
L 513 -844 
Q 928 -128 1133 580 
Q 1338 1288 1338 2009 
Q 1338 2731 1133 3434 
Q 928 4138 513 4856 
z
" transform="scale(0.015625)"/>
      </defs>
      <use xlink:href="#DejaVuSans-28"/>
      <use xlink:href="#DejaVuSans-30" x="39.013672"/>
      <use xlink:href="#DejaVuSans-2c" x="102.636719"/>
      <use xlink:href="#DejaVuSans-20" x="134.423828"/>
      <use xlink:href="#DejaVuSans-30" x="166.210938"/>
      <use xlink:href="#DejaVuSans-29" x="229.833984"/>
     </g>
    </g>
   </g>
   <g id="text_2">
    <g clip-path="url(#p6d2c48c7d1)">
     <!-- (0, 1) -->
     <g transform="translate(178.567355 82.912955) scale(0.08 -0.08)">
      <defs>
       <path id="DejaVuSans-31" d="M 794 531 
L 1825 531 
L 1825 4091 
L 703 3866 
L 703 4441 
L 1819 4666 
L 2450 4666 
L 2450 531 
L 3481 531 
L 3481 0 
L 794 0 
L 794 531 
z
" transform="scale(0.015625)"/>
      </defs>
      <use xlink:href="#DejaVuSans-28"/>
      <use xlink:href="#DejaVuSans-30" x="39.013672"/>
      <use xlink:href="#DejaVuSans-2c" x="102.636719"/>
      <use xlink:href="#DejaVuSans-20" x="134.423828"/>
      <use xlink:href="#DejaVuSans-31" x="166.210938"/>
      <use xlink:href="#DejaVuSans-29" x="229.833984"/>
     </g>
    </g>
   </g>
   <g id="text_3">
    <g clip-path="url(#p6d2c48c7d1)">
     <!-- (0, 2) -->
     <g transform="translate(246.053748 82.912955) scale(0.08 -0.08)">
      <defs>
       <path id="DejaVuSans-32" d="M 1228 531 
L 3431 531 
L 3431 0 
L 469 0 
L 469 531 
Q 828 903 1448 1529 
Q 2069 2156 2228 2338 
Q 2531 2678 2651 2914 
Q 2772 3150 2772 3378 
Q 2772 3750 2511 3984 
Q 2250 4219 1831 4219 
Q 1534 4219 1204 4116 
Q 875 4013 500 3803 
L 500 4441 
Q 881 4594 1212 4672 
Q 1544 4750 1819 4750 
Q 2544 4750 2975 4387 
Q 3406 4025 3406 3419 
Q 3406 3131 3298 2873 
Q 3191 2616 2906 2266 
Q 2828 2175 2409 1742 
Q 1991 1309 1228 531 
z
" transform="scale(0.015625)"/>
      </defs>
      <use xlink:href="#DejaVuSans-28"/>
      <use xlink:href="#DejaVuSans-30" x="39.013672"/>
      <use xlink:href="#DejaVuSans-2c" x="102.636719"/>
      <use xlink:href="#DejaVuSans-20" x="134.423828"/>
      <use xlink:href="#DejaVuSans-32" x="166.210938"/>
      <use xlink:href="#DejaVuSans-29" x="229.833984"/>
     </g>
    </g>
   </g>
   <g id="text_4">
    <g clip-path="url(#p6d2c48c7d1)">
     <!-- (0, 3) -->
     <g transform="translate(313.540142 82.912955) scale(0.08 -0.08)">
      <defs>
       <path id="DejaVuSans-33" d="M 2597 2516 
Q 3050 2419 3304 2112 
Q 3559 1806 3559 1356 
Q 3559 666 3084 287 
Q 2609 -91 1734 -91 
Q 1441 -91 1130 -33 
Q 819 25 488 141 
L 488 750 
Q 750 597 1062 519 
Q 1375 441 1716 441 
Q 2309 441 2620 675 
Q 2931 909 2931 1356 
Q 2931 1769 2642 2001 
Q 2353 2234 1838 2234 
L 1294 2234 
L 1294 2753 
L 1863 2753 
Q 2328 2753 2575 2939 
Q 2822 3125 2822 3475 
Q 2822 3834 2567 4026 
Q 2313 4219 1838 4219 
Q 1578 4219 1281 4162 
Q 984 4106 628 3988 
L 628 4550 
Q 988 4650 1302 4700 
Q 1616 4750 1894 4750 
Q 2613 4750 3031 4423 
Q 3450 4097 3450 3541 
Q 3450 3153 3228 2886 
Q 3006 2619 2597 2516 
z
" transform="scale(0.015625)"/>
      </defs>
      <use xlink:href="#DejaVuSans-28"/>
      <use xlink:href="#DejaVuSans-30" x="39.013672"/>
      <use xlink:href="#DejaVuSans-2c" x="102.636719"/>
      <use xlink:href="#DejaVuSans-20" x="134.423828"/>
      <use xlink:href="#DejaVuSans-33" x="166.210938"/>
      <use xlink:href="#DejaVuSans-29" x="229.833984"/>
     </g>
    </g>
   </g>
   <g id="text_5">
    <g clip-path="url(#p6d2c48c7d1)">
     <!-- (0, 4) -->
     <g transform="translate(381.026536 82.912955) scale(0.08 -0.08)">
      <defs>
       <path id="DejaVuSans-34" d="M 2419 4116 
L 825 1625 
L 2419 1625 
L 2419 4116 
z
M 2253 4666 
L 3047 4666 
L 3047 1625 
L 3713 1625 
L 3713 1100 
L 3047 1100 
L 3047 0 
L 2419 0 
L 2419 1100 
L 313 1100 
L 313 1709 
L 2253 4666 
z
" transform="scale(0.015625)"/>
      </defs>
      <use xlink:href="#DejaVuSans-28"/>
      <use xlink:href="#DejaVuSans-30" x="39.013672"/>
      <use xlink:href="#DejaVuSans-2c" x="102.636719"/>
      <use xlink:href="#DejaVuSans-20" x="134.423828"/>
      <use xlink:href="#DejaVuSans-34" x="166.210938"/>
      <use xlink:href="#DejaVuSans-29" x="229.833984"/>
     </g>
    </g>
   </g>
   <g id="text_6">
    <g clip-path="url(#p6d2c48c7d1)">
     <!-- (1, 0) -->
     <g transform="translate(111.080961 220.3675) scale(0.08 -0.08)">
      <use xlink:href="#DejaVuSans-28"/>
      <use xlink:href="#DejaVuSans-31" x="39.013672"/>
      <use xlink:href="#DejaVuSans-2c" x="102.636719"/>
      <use xlink:href="#DejaVuSans-20" x="134.423828"/>
      <use xlink:href="#DejaVuSans-30" x="166.210938"/>
      <use xlink:href="#DejaVuSans-29" x="229.833984"/>
     </g>
    </g>
   </g>
   <g id="text_7">
    <g clip-path="url(#p6d2c48c7d1)">
     <!-- (1, 1) -->
     <g transform="translate(178.567355 220.3675) scale(0.08 -0.08)">
      <use xlink:href="#DejaVuSans-28"/>
      <use xlink:href="#DejaVuSans-31" x="39.013672"/>
      <use xlink:href="#DejaVuSans-2c" x="102.636719"/>
      <use xlink:href="#DejaVuSans-20" x="134.423828"/>
      <use xlink:href="#DejaVuSans-31" x="166.210938"/>
      <use xlink:href="#DejaVuSans-29" x="229.833984"/>
     </g>
    </g>
   </g>
   <g id="text_8">
    <g clip-path="url(#p6d2c48c7d1)">
     <!-- (1, 2) -->
     <g transform="translate(246.053748 220.3675) scale(0.08 -0.08)">
      <use xlink:href="#DejaVuSans-28"/>
      <use xlink:href="#DejaVuSans-31" x="39.013672"/>
      <use xlink:href="#DejaVuSans-2c" x="102.636719"/>
      <use xlink:href="#DejaVuSans-20" x="134.423828"/>
      <use xlink:href="#DejaVuSans-32" x="166.210938"/>
      <use xlink:href="#DejaVuSans-29" x="229.833984"/>
     </g>
    </g>
   </g>
   <g id="text_9">
    <g clip-path="url(#p6d2c48c7d1)">
     <!-- (1, 3) -->
     <g transform="translate(313.540142 220.3675) scale(0.08 -0.08)">
      <use xlink:href="#DejaVuSans-28"/>
      <use xlink:href="#DejaVuSans-31" x="39.013672"/>
      <use xlink:href="#DejaVuSans-2c" x="102.636719"/>
      <use xlink:href="#DejaVuSans-20" x="134.423828"/>
      <use xlink:href="#DejaVuSans-33" x="166.210938"/>
      <use xlink:href="#DejaVuSans-29" x="229.833984"/>
     </g>
    </g>
   </g>
   <g id="text_10">
    <g clip-path="url(#p6d2c48c7d1)">
     <!-- (1, 4) -->
     <g transform="translate(381.026536 220.3675) scale(0.08 -0.08)">
      <use xlink:href="#DejaVuSans-28"/>
      <use xlink:href="#DejaVuSans-31" x="39.013672"/>
      <use xlink:href="#DejaVuSans-2c" x="102.636719"/>
      <use xlink:href="#DejaVuSans-20" x="134.423828"/>
      <use xlink:href="#DejaVuSans-34" x="166.210938"/>
      <use xlink:href="#DejaVuSans-29" x="229.833984"/>
     </g>
    </g>
   </g>
   <g id="text_11">
    <g clip-path="url(#p6d2c48c7d1)">
     <!-- (2, 0) -->
     <g transform="translate(111.080961 357.822045) scale(0.08 -0.08)">
      <use xlink:href="#DejaVuSans-28"/>
      <use xlink:href="#DejaVuSans-32" x="39.013672"/>
      <use xlink:href="#DejaVuSans-2c" x="102.636719"/>
      <use xlink:href="#DejaVuSans-20" x="134.423828"/>
      <use xlink:href="#DejaVuSans-30" x="166.210938"/>
      <use xlink:href="#DejaVuSans-29" x="229.833984"/>
     </g>
    </g>
   </g>
   <g id="text_12">
    <g clip-path="url(#p6d2c48c7d1)">
     <!-- (2, 1) -->
     <g transform="translate(178.567355 357.822045) scale(0.08 -0.08)">
      <use xlink:href="#DejaVuSans-28"/>
      <use xlink:href="#DejaVuSans-32" x="39.013672"/>
      <use xlink:href="#DejaVuSans-2c" x="102.636719"/>
      <use xlink:href="#DejaVuSans-20" x="134.423828"/>
      <use xlink:href="#DejaVuSans-31" x="166.210938"/>
      <use xlink:href="#DejaVuSans-29" x="229.833984"/>
     </g>
    </g>
   </g>
   <g id="text_13">
    <g clip-path="url(#p6d2c48c7d1)">
     <!-- (2, 2) -->
     <g transform="translate(246.053748 357.822045) scale(0.08 -0.08)">
      <use xlink:href="#DejaVuSans-28"/>
      <use xlink:href="#DejaVuSans-32" x="39.013672"/>
      <use xlink:href="#DejaVuSans-2c" x="102.636719"/>
      <use xlink:href="#DejaVuSans-20" x="134.423828"/>
      <use xlink:href="#DejaVuSans-32" x="166.210938"/>
      <use xlink:href="#DejaVuSans-29" x="229.833984"/>
     </g>
    </g>
   </g>
   <g id="text_14">
    <g clip-path="url(#p6d2c48c7d1)">
     <!-- (2, 3) -->
     <g transform="translate(313.540142 357.822045) scale(0.08 -0.08)">
      <use xlink:href="#DejaVuSans-28"/>
      <use xlink:href="#DejaVuSans-32" x="39.013672"/>
      <use xlink:href="#DejaVuSans-2c" x="102.636719"/>
      <use xlink:href="#DejaVuSans-20" x="134.423828"/>
      <use xlink:href="#DejaVuSans-33" x="166.210938"/>
      <use xlink:href="#DejaVuSans-29" x="229.833984"/>
     </g>
    </g>
   </g>
   <g id="text_15">
    <g clip-path="url(#p6d2c48c7d1)">
     <!-- (2, 4) -->
     <g transform="translate(381.026536 357.822045) scale(0.08 -0.08)">
      <use xlink:href="#DejaVuSans-28"/>
      <use xlink:href="#DejaVuSans-32" x="39.013672"/>
      <use xlink:href="#DejaVuSans-2c" x="102.636719"/>
      <use xlink:href="#DejaVuSans-20" x="134.423828"/>
      <use xlink:href="#DejaVuSans-34" x="166.210938"/>
      <use xlink:href="#DejaVuSans-29" x="229.833984"/>
     </g>
    </g>
   </g>
  </g>
  <g id="axes_2">
   <g id="patch_8">
    <path d="M 499.648084 89.367675 
Q 499.648084 149.434469 499.648084 208.383229 
" clip-path="url(#pa7d5e9a657)" style="fill: none; stroke: #000000; stroke-linecap: round"/>
    <path d="M 501.648084 204.383229 
L 499.648084 208.383229 
L 497.648084 204.383229 
z
" clip-path="url(#pa7d5e9a657)" style="stroke: #000000; stroke-linecap: round"/>
   </g>
   <g id="patch_9">
    <path d="M 571.195948 80.705455 
Q 593.976633 80.705455 615.639284 80.705455 
" clip-path="url(#pa7d5e9a657)" style="fill: none; stroke: #000000; stroke-linecap: round"/>
    <path d="M 611.639284 78.705455 
L 615.639284 80.705455 
L 611.639284 82.705455 
z
" clip-path="url(#pa7d5e9a657)" style="stroke: #000000; stroke-linecap: round"/>
   </g>
   <g id="patch_10">
    <path d="M 679.640416 80.705455 
Q 656.859731 80.705455 635.197079 80.705455 
" clip-path="url(#pa7d5e9a657)" style="fill: none; stroke: #000000; stroke-linecap: round"/>
    <path d="M 639.197079 82.705455 
L 635.197079 80.705455 
L 639.197079 78.705455 
z
" clip-path="url(#pa7d5e9a657)" style="stroke: #000000; stroke-linecap: round"/>
   </g>
   <g id="patch_11">
    <path d="M 742.525465 80.705455 
Q 719.744779 80.705455 698.082128 80.705455 
" clip-path="url(#pa7d5e9a657)" style="fill: none; stroke: #000000; stroke-linecap: round"/>
    <path d="M 702.082128 82.705455 
L 698.082128 80.705455 
L 702.082128 78.705455 
z
" clip-path="url(#pa7d5e9a657)" style="stroke: #000000; stroke-linecap: round"/>
   </g>
   <g id="patch_12">
    <path d="M 508.310899 218.16 
Q 531.091584 218.16 552.754236 218.16 
" clip-path="url(#pa7d5e9a657)" style="fill: none; stroke: #000000; stroke-linecap: round"/>
    <path d="M 548.754236 216.16 
L 552.754236 218.16 
L 548.754236 220.16 
z
" clip-path="url(#pa7d5e9a657)" style="stroke: #000000; stroke-linecap: round"/>
   </g>
   <g id="patch_13">
    <path d="M 562.533133 226.82222 
Q 562.533133 286.889014 562.533133 345.837775 
" clip-path="url(#pa7d5e9a657)" style="fill: none; stroke: #000000; stroke-linecap: round"/>
    <path d="M 564.533133 341.837775 
L 562.533133 345.837775 
L 560.533133 341.837775 
z
" clip-path="url(#pa7d5e9a657)" style="stroke: #000000; stroke-linecap: round"/>
   </g>
   <g id="patch_14">
    <path d="M 625.418182 209.49778 
Q 625.418182 149.430986 625.418182 90.482225 
" clip-path="url(#pa7d5e9a657)" style="fill: none; stroke: #000000; stroke-linecap: round"/>
    <path d="M 623.418182 94.482225 
L 625.418182 90.482225 
L 627.418182 94.482225 
z
" clip-path="url(#pa7d5e9a657)" style="stroke: #000000; stroke-linecap: round"/>
   </g>
   <g id="patch_15">
    <path d="M 688.303231 209.49778 
Q 688.303231 149.430986 688.303231 90.482225 
" clip-path="url(#pa7d5e9a657)" style="fill: none; stroke: #000000; stroke-linecap: round"/>
    <path d="M 686.303231 94.482225 
L 688.303231 90.482225 
L 690.303231 94.482225 
z
" clip-path="url(#pa7d5e9a657)" style="stroke: #000000; stroke-linecap: round"/>
   </g>
   <g id="patch_16">
    <path d="M 751.188279 209.49778 
Q 751.188279 149.430986 751.188279 90.482225 
" clip-path="url(#pa7d5e9a657)" style="fill: none; stroke: #000000; stroke-linecap: round"/>
    <path d="M 749.188279 94.482225 
L 751.188279 90.482225 
L 753.188279 94.482225 
z
" clip-path="url(#pa7d5e9a657)" style="stroke: #000000; stroke-linecap: round"/>
   </g>
   <g id="patch_17">
    <path d="M 499.648084 346.952325 
Q 499.648084 286.885531 499.648084 227.936771 
" clip-path="url(#pa7d5e9a657)" style="fill: none; stroke: #000000; stroke-linecap: round"/>
    <path d="M 497.648084 231.936771 
L 499.648084 227.936771 
L 501.648084 231.936771 
z
" clip-path="url(#pa7d5e9a657)" style="stroke: #000000; stroke-linecap: round"/>
   </g>
   <g id="patch_18">
    <path d="M 571.195948 355.614545 
Q 593.976633 355.614545 615.639284 355.614545 
" clip-path="url(#pa7d5e9a657)" style="fill: none; stroke: #000000; stroke-linecap: round"/>
    <path d="M 611.639284 353.614545 
L 615.639284 355.614545 
L 611.639284 357.614545 
z
" clip-path="url(#pa7d5e9a657)" style="stroke: #000000; stroke-linecap: round"/>
   </g>
   <g id="patch_19">
    <path d="M 634.080996 355.614545 
Q 656.861682 355.614545 678.524333 355.614545 
" clip-path="url(#pa7d5e9a657)" style="fill: none; stroke: #000000; stroke-linecap: round"/>
    <path d="M 674.524333 353.614545 
L 678.524333 355.614545 
L 674.524333 357.614545 
z
" clip-path="url(#pa7d5e9a657)" style="stroke: #000000; stroke-linecap: round"/>
   </g>
   <g id="patch_20">
    <path d="M 696.966045 355.614545 
Q 719.746731 355.614545 741.409382 355.614545 
" clip-path="url(#pa7d5e9a657)" style="fill: none; stroke: #000000; stroke-linecap: round"/>
    <path d="M 737.409382 353.614545 
L 741.409382 355.614545 
L 737.409382 357.614545 
z
" clip-path="url(#pa7d5e9a657)" style="stroke: #000000; stroke-linecap: round"/>
   </g>
   <g id="patch_21">
    <path d="M 751.188279 346.952325 
Q 751.188279 286.885531 751.188279 227.936771 
" clip-path="url(#pa7d5e9a657)" style="fill: none; stroke: #000000; stroke-linecap: round"/>
    <path d="M 749.188279 231.936771 
L 751.188279 227.936771 
L 753.188279 231.936771 
z
" clip-path="url(#pa7d5e9a657)" style="stroke: #000000; stroke-linecap: round"/>
   </g>
   <g id="PathCollection_2">
    <g clip-path="url(#pa7d5e9a657)">
     <use xlink:href="#m1d228ae564" x="499.648084" y="80.705455" style="fill: #ffffff; stroke: #ffffff"/>
     <use xlink:href="#m1d228ae564" x="562.533133" y="80.705455" style="fill: #ffffff; stroke: #ffffff"/>
     <use xlink:href="#m1d228ae564" x="625.418182" y="80.705455" style="fill: #ffffff; stroke: #ffffff"/>
     <use xlink:href="#m1d228ae564" x="688.303231" y="80.705455" style="fill: #ffffff; stroke: #ffffff"/>
     <use xlink:href="#m1d228ae564" x="751.188279" y="80.705455" style="fill: #ffffff; stroke: #ffffff"/>
     <use xlink:href="#m1d228ae564" x="499.648084" y="218.16" style="fill: #ffffff; stroke: #ffffff"/>
     <use xlink:href="#m1d228ae564" x="562.533133" y="218.16" style="fill: #ffffff; stroke: #ffffff"/>
     <use xlink:href="#m1d228ae564" x="625.418182" y="218.16" style="fill: #ffffff; stroke: #ffffff"/>
     <use xlink:href="#m1d228ae564" x="688.303231" y="218.16" style="fill: #ffffff; stroke: #ffffff"/>
     <use xlink:href="#m1d228ae564" x="751.188279" y="218.16" style="fill: #ffffff; stroke: #ffffff"/>
     <use xlink:href="#m1d228ae564" x="499.648084" y="355.614545" style="fill: #ffffff; stroke: #ffffff"/>
     <use xlink:href="#m1d228ae564" x="562.533133" y="355.614545" style="fill: #ffffff; stroke: #ffffff"/>
     <use xlink:href="#m1d228ae564" x="625.418182" y="355.614545" style="fill: #ffffff; stroke: #ffffff"/>
     <use xlink:href="#m1d228ae564" x="688.303231" y="355.614545" style="fill: #ffffff; stroke: #ffffff"/>
     <use xlink:href="#m1d228ae564" x="751.188279" y="355.614545" style="fill: #ffffff; stroke: #ffffff"/>
    </g>
   </g>
   <g id="text_16">
    <g clip-path="url(#pa7d5e9a657)">
     <!-- (0, 0) -->
     <g transform="translate(488.894334 82.912955) scale(0.08 -0.08)">
      <use xlink:href="#DejaVuSans-28"/>
      <use xlink:href="#DejaVuSans-30" x="39.013672"/>
      <use xlink:href="#DejaVuSans-2c" x="102.636719"/>
      <use xlink:href="#DejaVuSans-20" x="134.423828"/>
      <use xlink:href="#DejaVuSans-30" x="166.210938"/>
      <use xlink:href="#DejaVuSans-29" x="229.833984"/>
     </g>
    </g>
   </g>
   <g id="text_17">
    <g clip-path="url(#pa7d5e9a657)">
     <!-- (0, 1) -->
     <g transform="translate(551.779383 82.912955) scale(0.08 -0.08)">
      <use xlink:href="#DejaVuSans-28"/>
      <use xlink:href="#DejaVuSans-30" x="39.013672"/>
      <use xlink:href="#DejaVuSans-2c" x="102.636719"/>
      <use xlink:href="#DejaVuSans-20" x="134.423828"/>
      <use xlink:href="#DejaVuSans-31" x="166.210938"/>
      <use xlink:href="#DejaVuSans-29" x="229.833984"/>
     </g>
    </g>
   </g>
   <g id="text_18">
    <g clip-path="url(#pa7d5e9a657)">
     <!-- (0, 2) -->
     <g transform="translate(614.664432 82.912955) scale(0.08 -0.08)">
      <use xlink:href="#DejaVuSans-28"/>
      <use xlink:href="#DejaVuSans-30" x="39.013672"/>
      <use xlink:href="#DejaVuSans-2c" x="102.636719"/>
      <use xlink:href="#DejaVuSans-20" x="134.423828"/>
      <use xlink:href="#DejaVuSans-32" x="166.210938"/>
      <use xlink:href="#DejaVuSans-29" x="229.833984"/>
     </g>
    </g>
   </g>
   <g id="text_19">
    <g clip-path="url(#pa7d5e9a657)">
     <!-- (0, 3) -->
     <g transform="translate(677.549481 82.912955) scale(0.08 -0.08)">
      <use xlink:href="#DejaVuSans-28"/>
      <use xlink:href="#DejaVuSans-30" x="39.013672"/>
      <use xlink:href="#DejaVuSans-2c" x="102.636719"/>
      <use xlink:href="#DejaVuSans-20" x="134.423828"/>
      <use xlink:href="#DejaVuSans-33" x="166.210938"/>
      <use xlink:href="#DejaVuSans-29" x="229.833984"/>
     </g>
    </g>
   </g>
   <g id="text_20">
    <g clip-path="url(#pa7d5e9a657)">
     <!-- (0, 4) -->
     <g transform="translate(740.434529 82.912955) scale(0.08 -0.08)">
      <use xlink:href="#DejaVuSans-28"/>
      <use xlink:href="#DejaVuSans-30" x="39.013672"/>
      <use xlink:href="#DejaVuSans-2c" x="102.636719"/>
      <use xlink:href="#DejaVuSans-20" x="134.423828"/>
      <use xlink:href="#DejaVuSans-34" x="166.210938"/>
      <use xlink:href="#DejaVuSans-29" x="229.833984"/>
     </g>
    </g>
   </g>
   <g id="text_21">
    <g clip-path="url(#pa7d5e9a657)">
     <!-- (1, 0) -->
     <g transform="translate(488.894334 220.3675) scale(0.08 -0.08)">
      <use xlink:href="#DejaVuSans-28"/>
      <use xlink:href="#DejaVuSans-31" x="39.013672"/>
      <use xlink:href="#DejaVuSans-2c" x="102.636719"/>
      <use xlink:href="#DejaVuSans-20" x="134.423828"/>
      <use xlink:href="#DejaVuSans-30" x="166.210938"/>
      <use xlink:href="#DejaVuSans-29" x="229.833984"/>
     </g>
    </g>
   </g>
   <g id="text_22">
    <g clip-path="url(#pa7d5e9a657)">
     <!-- (1, 1) -->
     <g transform="translate(551.779383 220.3675) scale(0.08 -0.08)">
      <use xlink:href="#DejaVuSans-28"/>
      <use xlink:href="#DejaVuSans-31" x="39.013672"/>
      <use xlink:href="#DejaVuSans-2c" x="102.636719"/>
      <use xlink:href="#DejaVuSans-20" x="134.423828"/>
      <use xlink:href="#DejaVuSans-31" x="166.210938"/>
      <use xlink:href="#DejaVuSans-29" x="229.833984"/>
     </g>
    </g>
   </g>
   <g id="text_23">
    <g clip-path="url(#pa7d5e9a657)">
     <!-- (1, 2) -->
     <g transform="translate(614.664432 220.3675) scale(0.08 -0.08)">
      <use xlink:href="#DejaVuSans-28"/>
      <use xlink:href="#DejaVuSans-31" x="39.013672"/>
      <use xlink:href="#DejaVuSans-2c" x="102.636719"/>
      <use xlink:href="#DejaVuSans-20" x="134.423828"/>
      <use xlink:href="#DejaVuSans-32" x="166.210938"/>
      <use xlink:href="#DejaVuSans-29" x="229.833984"/>
     </g>
    </g>
   </g>
   <g id="text_24">
    <g clip-path="url(#pa7d5e9a657)">
     <!-- (1, 3) -->
     <g transform="translate(677.549481 220.3675) scale(0.08 -0.08)">
      <use xlink:href="#DejaVuSans-28"/>
      <use xlink:href="#DejaVuSans-31" x="39.013672"/>
      <use xlink:href="#DejaVuSans-2c" x="102.636719"/>
      <use xlink:href="#DejaVuSans-20" x="134.423828"/>
      <use xlink:href="#DejaVuSans-33" x="166.210938"/>
      <use xlink:href="#DejaVuSans-29" x="229.833984"/>
     </g>
    </g>
   </g>
   <g id="text_25">
    <g clip-path="url(#pa7d5e9a657)">
     <!-- (1, 4) -->
     <g transform="translate(740.434529 220.3675) scale(0.08 -0.08)">
      <use xlink:href="#DejaVuSans-28"/>
      <use xlink:href="#DejaVuSans-31" x="39.013672"/>
      <use xlink:href="#DejaVuSans-2c" x="102.636719"/>
      <use xlink:href="#DejaVuSans-20" x="134.423828"/>
      <use xlink:href="#DejaVuSans-34" x="166.210938"/>
      <use xlink:href="#DejaVuSans-29" x="229.833984"/>
     </g>
    </g>
   </g>
   <g id="text_26">
    <g clip-path="url(#pa7d5e9a657)">
     <!-- (2, 0) -->
     <g transform="translate(488.894334 357.822045) scale(0.08 -0.08)">
      <use xlink:href="#DejaVuSans-28"/>
      <use xlink:href="#DejaVuSans-32" x="39.013672"/>
      <use xlink:href="#DejaVuSans-2c" x="102.636719"/>
      <use xlink:href="#DejaVuSans-20" x="134.423828"/>
      <use xlink:href="#DejaVuSans-30" x="166.210938"/>
      <use xlink:href="#DejaVuSans-29" x="229.833984"/>
     </g>
    </g>
   </g>
   <g id="text_27">
    <g clip-path="url(#pa7d5e9a657)">
     <!-- (2, 1) -->
     <g transform="translate(551.779383 357.822045) scale(0.08 -0.08)">
      <use xlink:href="#DejaVuSans-28"/>
      <use xlink:href="#DejaVuSans-32" x="39.013672"/>
      <use xlink:href="#DejaVuSans-2c" x="102.636719"/>
      <use xlink:href="#DejaVuSans-20" x="134.423828"/>
      <use xlink:href="#DejaVuSans-31" x="166.210938"/>
      <use xlink:href="#DejaVuSans-29" x="229.833984"/>
     </g>
    </g>
   </g>
   <g id="text_28">
    <g clip-path="url(#pa7d5e9a657)">
     <!-- (2, 2) -->
     <g transform="translate(614.664432 357.822045) scale(0.08 -0.08)">
      <use xlink:href="#DejaVuSans-28"/>
      <use xlink:href="#DejaVuSans-32" x="39.013672"/>
      <use xlink:href="#DejaVuSans-2c" x="102.636719"/>
      <use xlink:href="#DejaVuSans-20" x="134.423828"/>
      <use xlink:href="#DejaVuSans-32" x="166.210938"/>
      <use xlink:href="#DejaVuSans-29" x="229.833984"/>
     </g>
    </g>
   </g>
   <g id="text_29">
    <g clip-path="url(#pa7d5e9a657)">
     <!-- (2, 3) -->
     <g transform="translate(677.549481 357.822045) scale(0.08 -0.08)">
      <use xlink:href="#DejaVuSans-28"/>
      <use xlink:href="#DejaVuSans-32" x="39.013672"/>
      <use xlink:href="#DejaVuSans-2c" x="102.636719"/>
      <use xlink:href="#DejaVuSans-20" x="134.423828"/>
      <use xlink:href="#DejaVuSans-33" x="166.210938"/>
      <use xlink:href="#DejaVuSans-29" x="229.833984"/>
     </g>
    </g>
   </g>
   <g id="text_30">
    <g clip-path="url(#pa7d5e9a657)">
     <!-- (2, 4) -->
     <g transform="translate(740.434529 357.822045) scale(0.08 -0.08)">
      <use xlink:href="#DejaVuSans-28"/>
      <use xlink:href="#DejaVuSans-32" x="39.013672"/>
      <use xlink:href="#DejaVuSans-2c" x="102.636719"/>
      <use xlink:href="#DejaVuSans-20" x="134.423828"/>
      <use xlink:href="#DejaVuSans-34" x="166.210938"/>
      <use xlink:href="#DejaVuSans-29" x="229.833984"/>
     </g>
    </g>
   </g>
  </g>
 </g>
 <defs>
  <clipPath id="p6d2c48c7d1">
   <rect x="108" y="51.84" width="304.363636" height="332.64"/>
  </clipPath>
  <clipPath id="pa7d5e9a657">
   <rect x="473.236364" y="51.84" width="304.363636" height="332.64"/>
  </clipPath>
 </defs>
</svg>
